<svg xmlns="http://www.w3.org/2000/svg" xmlns:xlink="http://www.w3.org/1999/xlink" width="67" zoomAndPan="magnify" viewBox="0 0 50.25 50.249998" height="67" preserveAspectRatio="xMidYMid meet" version="1.0"><defs><clipPath id="052f37835f"><path d="M 5 0.6875 L 40.421875 0.6875 L 40.421875 48.71875 L 5 48.71875 Z M 5 0.6875 " clip-rule="nonzero"/></clipPath></defs><g clip-path="url(#052f37835f)"><path fill="#ffffff" d="M 25.765625 48.6875 L 24.976562 48.167969 C 22.015625 46.269531 20.128906 44.605469 19.316406 43.179688 C 18.394531 41.464844 18.4375 39.726562 19.445312 37.964844 C 20.441406 36.210938 21.929688 35.195312 23.910156 34.917969 C 25.277344 34.644531 27.859375 35.210938 31.65625 36.625 C 33.492188 36.847656 34.660156 36.742188 35.160156 36.304688 C 35.609375 35.886719 35.859375 35.257812 35.910156 34.425781 C 35.949219 34.019531 35.972656 33.601562 35.984375 33.171875 C 35.765625 32.070312 35.710938 31.273438 35.820312 30.785156 C 35.878906 30.578125 35.96875 30.40625 36.101562 30.277344 L 37.136719 29.453125 C 37.234375 29.359375 37.308594 29.171875 37.371094 28.886719 C 37.402344 28.636719 37.355469 28.398438 37.226562 28.175781 L 36.410156 27.300781 L 37.703125 26.90625 C 37.925781 26.78125 38.046875 26.609375 38.074219 26.394531 C 38.144531 26.003906 37.792969 25.261719 37.023438 24.167969 C 36.925781 23.902344 36.917969 23.652344 37 23.421875 C 37.085938 23.171875 37.265625 22.964844 37.539062 22.796875 C 38.816406 22.160156 39.542969 21.746094 39.714844 21.554688 C 40.117188 21.183594 40.3125 20.90625 40.292969 20.71875 C 40.375 20.425781 40.21875 19.972656 39.824219 19.363281 L 39.207031 18.539062 C 37.683594 17.054688 36.761719 16.0625 36.445312 15.5625 C 35.847656 14.6875 35.519531 14.0625 35.464844 13.683594 C 35.167969 12.554688 35.261719 11.160156 35.746094 9.503906 C 37.234375 9.324219 37.972656 9.207031 37.949219 9.152344 C 38.039062 9.09375 37.359375 9.042969 35.917969 9 C 36.226562 6.882812 36.292969 5.371094 36.117188 4.464844 C 36.003906 3.53125 35.503906 2.285156 34.621094 0.722656 C 32.261719 7.589844 28.933594 12.945312 24.632812 16.792969 C 22.964844 18.496094 20.550781 19.917969 17.382812 21.058594 C 20.332031 18.566406 22.238281 16.699219 23.101562 15.453125 C 24.078125 14.207031 24.933594 12.339844 25.671875 9.847656 C 23.5625 12.871094 21.882812 14.886719 20.625 15.898438 C 20 16.445312 19.109375 17.070312 17.953125 17.777344 L 9.09375 22.90625 C 6.671875 24.980469 5.390625 26.53125 5.25 27.558594 C 5.046875 28.1875 5.183594 29.191406 5.664062 30.566406 C 5.964844 28.4375 7 26.957031 8.765625 26.125 C 7.777344 28.324219 7.261719 29.921875 7.222656 30.917969 C 7.074219 31.730469 7.234375 32.921875 7.703125 34.492188 C 7.976562 35.367188 8.496094 36.609375 9.253906 38.21875 L 9.382812 32.847656 C 10.230469 37.746094 11.746094 41.175781 13.929688 43.136719 C 18.140625 46.78125 22.085938 48.632812 25.765625 48.6875 " fill-opacity="1" fill-rule="nonzero"/></g></svg>